<svg width="54mm" height="54mm" version="1.1" viewBox="0 0 54 54" xmlns="http://www.w3.org/2000/svg">
 <g transform="translate(-15.262 -16.614)">
  <g fill="none">
   <path d="m33.041 23.603c-0.1389-2.4528-0.053-4.6356 0.4001-6.3782v0.0444" stroke="#12e4cb"/>
   <path d="m34.73 16.958c-0.4419 1.5076-0.8267 3.101-0.2222 6.1782" stroke="#12e4cb"/>
   <rect x="15.262" y="16.614" width="54" height="54" style="paint-order:fill markers stroke"/>
  </g>
  <g transform="translate(-987.81 -189.57)" fill="none" stroke="#ed1b34" stroke-width="2">
   <g>
    <path d="m1018.7 232.72c4.8846-1.122 6.9616-5.2141 9.295-5.8899 1.43-0.41418 6.7929 0.65564 13.042-0.76464 0.01-5.8346-5.4503-9.4745-13.205-10.506-0.8502-0.11314-1.4669 0.60767-2.3741 1.1178-6.8088 4.1908-10.456 10.189-6.7578 16.043z"/>
    <path d="m1018.7 232.72c-0.2743 1.8534-1.1344 4.8575-2.4245 5.7776-1.893 1.7628-2.5582 2.9153-3.0952 4.5396-1.0238 2.405 0.4356 5.2172 0.7546 5.7439 0.6476 0.7682 2.1065 3.0114 5.4755 4.4125 0.7507 0.3122 1.1151 0.40074 1.7141 0.98615 4.1257 0.5133 7.0424-0.70636 9.8013-2.9404 1.9929-2.4154 2.9983-5.1716 2.5277-6.4998-0.5296-1.5851-0.2652-0.85548-0.7357-1.7421"/>
    <path d="m1033.4 244.74c1.5896 1.873 4.9986 3.0259 8.8923 2.2354 2.2415-0.33635 4.3963-1.445 6.3104-4.6325 1.7714-3.0152 1.0056-3.8758 1.8239-6.2375-1.3962-5.4644-2.898-5.7353-4.0489-6.6388-2.141-1.2998-4.5779-3.13-5.3945-3.4006"/>
   </g>
   <path d="m1030.9 251.24c1.5218 4.0822 1.9076 4.4939 3.6869 5.6937 2.2035 1.3823 2.5269 1.1006 6.0187 2.0427" stroke-linecap="round"/>
   <path d="m1041.6 247.15c1.6658 4.3341-0.3152 12.215-1.0199 11.827" stroke-linecap="round"/>
  </g>
  <g fill="none" stroke="#ed1b34">
   <g stroke-width="2">
    <path d="m29.781 34.609c-1.8534 1.6484-3.3552 3.0332-3.976 3.7571-2.1437 2.3747-1.7856 2.84-3.1734 4.0854-3.4591 2.9089-2.5874 1.4872-3.7527 2.9159-0.1915 0.30338-0.5863 0.61457-0.8799 0.80471 0.6228 0.35728 0.5607 0.76273 0.8755 1.1673 1.968 2.2285 5.5841 1.5859 8.645-0.0365 2.5287-1.3419 1.7509-2.5377 3.0542-4.3222"/>
    <path d="m51.701 31.524c1.3446-0.52215 2.1355-0.3108 2.8669-0.24855 0.5 0.0288 4.1012 1.4797 10.802 0.78011 0.5566-0.0458 1.2397 0.23296 1.6777 0.0976-0.065 0.26165-0.1248 1.3726-0.2712 1.8689-1.718 5.824-5.1852 5.4711-8.5895 5.5864"/>
    <path d="m29.781 34.609c0.1925-7.6925-1.0205-9.2447-0.696-10.45 0.2177-1.0985 1.9603-1.1515 5.2004-0.17779 0.9698-3.6785 2.2343-4.3117 3.5558-4.3558 2.1068 0.54724 3.9344 5.4006 5.7197 7.1012"/>
   </g>
   <g stroke-linecap="round">
    <path d="m35.887 58.802c2.712-3.3335 4.526-10.649 3.0124-20.657"/>
    <path d="m58.951 46.801c-8.421 3.8063-17.138 0.77346-18.537-6.1884"/>
    <path d="m40.057 37.266c2.7359-2.3836 1.5265-6.9216 0.4178-8.9527"/>
   </g>
   <path d="m39.214 37.868c5.03e-4 4.9818 1.4864 10.72 3.8471 13.299l-0.014-0.0293"/>
   <path d="m43.661 50.626c-1.6863-2.1792-3.6444-9.2185-3.4221-13.181m0.6706-0.18678c-0.1512 2.8874 2.58 6.9943 5.9643 7.7641 0.3015-1.1662 1.3204-1.2785 1.8217-1.0335 0.4378 0.12268 2.3893 0.7996 1.6862 1.7205-0.2764 0.30525-0.8415 0.55258-1.2894 0.43583-1.472-0.15897-1.7758-0.48768-2.2185-1.1229"/>
  </g>
  <path d="m43.014 51.246c0.1362-0.21672 0.2449-0.58138 0.6479-0.62027 0.561-0.0223 1.9544 1.6827 1.8518 2.6099-0.028 0.74257-0.556 0.73644-1.2986 0.72113-0.6053-0.01749-1.4524-1.3338-1.2011-2.7107z" fill="#fff" stroke="#ed1b34"/>
  <g fill="none" stroke="#ed1b34">
   <path d="m41.589 37.025c1.0595 4.9641 3.0115 5.9628 5.8056 7.135"/>
   <g stroke-linecap="round">
    <path d="m29.555 39.987c-0.6815 0.34219-1.0323 1.0052-1.894 2.0898-1.3036 1.6408-2.4472 2.986-4.6048 3.5492"/>
    <path d="m47.645 56.707c1.232 2.8017 1.2407 3.7031 1.8528 6.4641"/>
    <path d="m53.403 35.621c1.0549 0.42111 2.4564 0.75769 5.4568 0.42378 1.1661-0.12978 2.688-0.23156 3.4571-0.77969"/>
    <path d="m34.888 25.509c0.2523 1.7588 0.6601 1.824 1.0336 2.4722"/>
   </g>
  </g>
  <path d="m46.874 45.021 1.1437-1.1071 2.067 0.62012s0.3473 0.88471 0.2977 0.91778c-0.05 0.0331-1.0997 0.68626-1.0997 0.68626l-2.4087-1.1171" fill="#fff" stroke="#ed1b34"/>
 </g>
</svg>
